<svg xmlns="http://www.w3.org/2000/svg" width="1400" height="1400" viewBox="0 0 1400 1400" fill="none">
<defs>
  <filter id="softGlow" x="-20%" y="-20%" width="140%" height="140%">
    <feGaussianBlur stdDeviation="1.3" result="blur"/>
    <feMerge><feMergeNode in="blur"/><feMergeNode in="SourceGraphic"/></feMerge>
  </filter>
</defs>
<g opacity="0.72" stroke="#D8B06A" filter="url(#softGlow)">
  <circle cx="700.0" cy="700.0" r="620" stroke-width="3.2"/>
  <circle cx="700.0" cy="700.0" r="604" stroke-width="1.6" opacity="0.75"/>
  <circle cx="700.0" cy="700.0" r="586" stroke-width="1.2" opacity="0.65"/>
  <circle cx="700.0" cy="700.0" r="520" stroke-width="3"/>
  <circle cx="700.0" cy="700.0" r="505" stroke-width="1.4" opacity="0.7"/>
<g transform="translate(1270.00 700.00) rotate(90.00)" opacity="0.7">
<path d="M -12 -15 H 12 V 15 H -12 V -7 H 4 V 7 H -4" stroke-width="1.5" fill="none"/>
</g>
<g transform="translate(1267.26 755.87) rotate(95.62)" opacity="0.7">
<path d="M -12 -15 H 12 V 15 H -12 V -7 H 4 V 7 H -4" stroke-width="1.5" fill="none"/>
</g>
<g transform="translate(1259.05 811.20) rotate(101.25)" opacity="0.7">
<path d="M -12 -15 H 12 V 15 H -12 V -7 H 4 V 7 H -4" stroke-width="1.5" fill="none"/>
</g>
<g transform="translate(1245.46 865.46) rotate(106.88)" opacity="0.7">
<path d="M -12 -15 H 12 V 15 H -12 V -7 H 4 V 7 H -4" stroke-width="1.5" fill="none"/>
</g>
<g transform="translate(1226.61 918.13) rotate(112.50)" opacity="0.7">
<path d="M -12 -15 H 12 V 15 H -12 V -7 H 4 V 7 H -4" stroke-width="1.5" fill="none"/>
</g>
<g transform="translate(1202.70 968.70) rotate(118.12)" opacity="0.7">
<path d="M -12 -15 H 12 V 15 H -12 V -7 H 4 V 7 H -4" stroke-width="1.5" fill="none"/>
</g>
<g transform="translate(1173.94 1016.68) rotate(123.75)" opacity="0.7">
<path d="M -12 -15 H 12 V 15 H -12 V -7 H 4 V 7 H -4" stroke-width="1.5" fill="none"/>
</g>
<g transform="translate(1140.62 1061.60) rotate(129.38)" opacity="0.7">
<path d="M -12 -15 H 12 V 15 H -12 V -7 H 4 V 7 H -4" stroke-width="1.5" fill="none"/>
</g>
<g transform="translate(1103.05 1103.05) rotate(135.00)" opacity="0.7">
<path d="M -12 -15 H 12 V 15 H -12 V -7 H 4 V 7 H -4" stroke-width="1.5" fill="none"/>
</g>
<g transform="translate(1061.60 1140.62) rotate(140.62)" opacity="0.7">
<path d="M -12 -15 H 12 V 15 H -12 V -7 H 4 V 7 H -4" stroke-width="1.5" fill="none"/>
</g>
<g transform="translate(1016.68 1173.94) rotate(146.25)" opacity="0.7">
<path d="M -12 -15 H 12 V 15 H -12 V -7 H 4 V 7 H -4" stroke-width="1.5" fill="none"/>
</g>
<g transform="translate(968.70 1202.70) rotate(151.88)" opacity="0.7">
<path d="M -12 -15 H 12 V 15 H -12 V -7 H 4 V 7 H -4" stroke-width="1.5" fill="none"/>
</g>
<g transform="translate(918.13 1226.61) rotate(157.50)" opacity="0.7">
<path d="M -12 -15 H 12 V 15 H -12 V -7 H 4 V 7 H -4" stroke-width="1.5" fill="none"/>
</g>
<g transform="translate(865.46 1245.46) rotate(163.12)" opacity="0.7">
<path d="M -12 -15 H 12 V 15 H -12 V -7 H 4 V 7 H -4" stroke-width="1.5" fill="none"/>
</g>
<g transform="translate(811.20 1259.05) rotate(168.75)" opacity="0.7">
<path d="M -12 -15 H 12 V 15 H -12 V -7 H 4 V 7 H -4" stroke-width="1.5" fill="none"/>
</g>
<g transform="translate(755.87 1267.26) rotate(174.38)" opacity="0.7">
<path d="M -12 -15 H 12 V 15 H -12 V -7 H 4 V 7 H -4" stroke-width="1.5" fill="none"/>
</g>
<g transform="translate(700.00 1270.00) rotate(180.00)" opacity="0.7">
<path d="M -12 -15 H 12 V 15 H -12 V -7 H 4 V 7 H -4" stroke-width="1.5" fill="none"/>
</g>
<g transform="translate(644.13 1267.26) rotate(185.62)" opacity="0.7">
<path d="M -12 -15 H 12 V 15 H -12 V -7 H 4 V 7 H -4" stroke-width="1.5" fill="none"/>
</g>
<g transform="translate(588.80 1259.05) rotate(191.25)" opacity="0.7">
<path d="M -12 -15 H 12 V 15 H -12 V -7 H 4 V 7 H -4" stroke-width="1.5" fill="none"/>
</g>
<g transform="translate(534.54 1245.46) rotate(196.88)" opacity="0.7">
<path d="M -12 -15 H 12 V 15 H -12 V -7 H 4 V 7 H -4" stroke-width="1.5" fill="none"/>
</g>
<g transform="translate(481.87 1226.61) rotate(202.50)" opacity="0.7">
<path d="M -12 -15 H 12 V 15 H -12 V -7 H 4 V 7 H -4" stroke-width="1.5" fill="none"/>
</g>
<g transform="translate(431.30 1202.70) rotate(208.12)" opacity="0.7">
<path d="M -12 -15 H 12 V 15 H -12 V -7 H 4 V 7 H -4" stroke-width="1.5" fill="none"/>
</g>
<g transform="translate(383.32 1173.94) rotate(213.75)" opacity="0.7">
<path d="M -12 -15 H 12 V 15 H -12 V -7 H 4 V 7 H -4" stroke-width="1.5" fill="none"/>
</g>
<g transform="translate(338.40 1140.62) rotate(219.38)" opacity="0.7">
<path d="M -12 -15 H 12 V 15 H -12 V -7 H 4 V 7 H -4" stroke-width="1.5" fill="none"/>
</g>
<g transform="translate(296.95 1103.05) rotate(225.00)" opacity="0.7">
<path d="M -12 -15 H 12 V 15 H -12 V -7 H 4 V 7 H -4" stroke-width="1.5" fill="none"/>
</g>
<g transform="translate(259.38 1061.60) rotate(230.62)" opacity="0.7">
<path d="M -12 -15 H 12 V 15 H -12 V -7 H 4 V 7 H -4" stroke-width="1.5" fill="none"/>
</g>
<g transform="translate(226.06 1016.68) rotate(236.25)" opacity="0.7">
<path d="M -12 -15 H 12 V 15 H -12 V -7 H 4 V 7 H -4" stroke-width="1.5" fill="none"/>
</g>
<g transform="translate(197.30 968.70) rotate(241.88)" opacity="0.7">
<path d="M -12 -15 H 12 V 15 H -12 V -7 H 4 V 7 H -4" stroke-width="1.5" fill="none"/>
</g>
<g transform="translate(173.39 918.13) rotate(247.50)" opacity="0.7">
<path d="M -12 -15 H 12 V 15 H -12 V -7 H 4 V 7 H -4" stroke-width="1.5" fill="none"/>
</g>
<g transform="translate(154.54 865.46) rotate(253.12)" opacity="0.7">
<path d="M -12 -15 H 12 V 15 H -12 V -7 H 4 V 7 H -4" stroke-width="1.5" fill="none"/>
</g>
<g transform="translate(140.95 811.20) rotate(258.75)" opacity="0.7">
<path d="M -12 -15 H 12 V 15 H -12 V -7 H 4 V 7 H -4" stroke-width="1.5" fill="none"/>
</g>
<g transform="translate(132.74 755.87) rotate(264.38)" opacity="0.7">
<path d="M -12 -15 H 12 V 15 H -12 V -7 H 4 V 7 H -4" stroke-width="1.5" fill="none"/>
</g>
<g transform="translate(130.00 700.00) rotate(270.00)" opacity="0.7">
<path d="M -12 -15 H 12 V 15 H -12 V -7 H 4 V 7 H -4" stroke-width="1.5" fill="none"/>
</g>
<g transform="translate(132.74 644.13) rotate(275.62)" opacity="0.7">
<path d="M -12 -15 H 12 V 15 H -12 V -7 H 4 V 7 H -4" stroke-width="1.5" fill="none"/>
</g>
<g transform="translate(140.95 588.80) rotate(281.25)" opacity="0.7">
<path d="M -12 -15 H 12 V 15 H -12 V -7 H 4 V 7 H -4" stroke-width="1.5" fill="none"/>
</g>
<g transform="translate(154.54 534.54) rotate(286.88)" opacity="0.7">
<path d="M -12 -15 H 12 V 15 H -12 V -7 H 4 V 7 H -4" stroke-width="1.5" fill="none"/>
</g>
<g transform="translate(173.39 481.87) rotate(292.50)" opacity="0.7">
<path d="M -12 -15 H 12 V 15 H -12 V -7 H 4 V 7 H -4" stroke-width="1.5" fill="none"/>
</g>
<g transform="translate(197.30 431.30) rotate(298.12)" opacity="0.7">
<path d="M -12 -15 H 12 V 15 H -12 V -7 H 4 V 7 H -4" stroke-width="1.5" fill="none"/>
</g>
<g transform="translate(226.06 383.32) rotate(303.75)" opacity="0.7">
<path d="M -12 -15 H 12 V 15 H -12 V -7 H 4 V 7 H -4" stroke-width="1.5" fill="none"/>
</g>
<g transform="translate(259.38 338.40) rotate(309.38)" opacity="0.7">
<path d="M -12 -15 H 12 V 15 H -12 V -7 H 4 V 7 H -4" stroke-width="1.5" fill="none"/>
</g>
<g transform="translate(296.95 296.95) rotate(315.00)" opacity="0.7">
<path d="M -12 -15 H 12 V 15 H -12 V -7 H 4 V 7 H -4" stroke-width="1.5" fill="none"/>
</g>
<g transform="translate(338.40 259.38) rotate(320.62)" opacity="0.7">
<path d="M -12 -15 H 12 V 15 H -12 V -7 H 4 V 7 H -4" stroke-width="1.5" fill="none"/>
</g>
<g transform="translate(383.32 226.06) rotate(326.25)" opacity="0.7">
<path d="M -12 -15 H 12 V 15 H -12 V -7 H 4 V 7 H -4" stroke-width="1.5" fill="none"/>
</g>
<g transform="translate(431.30 197.30) rotate(331.88)" opacity="0.7">
<path d="M -12 -15 H 12 V 15 H -12 V -7 H 4 V 7 H -4" stroke-width="1.5" fill="none"/>
</g>
<g transform="translate(481.87 173.39) rotate(337.50)" opacity="0.7">
<path d="M -12 -15 H 12 V 15 H -12 V -7 H 4 V 7 H -4" stroke-width="1.5" fill="none"/>
</g>
<g transform="translate(534.54 154.54) rotate(343.12)" opacity="0.7">
<path d="M -12 -15 H 12 V 15 H -12 V -7 H 4 V 7 H -4" stroke-width="1.5" fill="none"/>
</g>
<g transform="translate(588.80 140.95) rotate(348.75)" opacity="0.7">
<path d="M -12 -15 H 12 V 15 H -12 V -7 H 4 V 7 H -4" stroke-width="1.5" fill="none"/>
</g>
<g transform="translate(644.13 132.74) rotate(354.38)" opacity="0.7">
<path d="M -12 -15 H 12 V 15 H -12 V -7 H 4 V 7 H -4" stroke-width="1.5" fill="none"/>
</g>
<g transform="translate(700.00 130.00) rotate(360.00)" opacity="0.7">
<path d="M -12 -15 H 12 V 15 H -12 V -7 H 4 V 7 H -4" stroke-width="1.5" fill="none"/>
</g>
<g transform="translate(755.87 132.74) rotate(365.62)" opacity="0.7">
<path d="M -12 -15 H 12 V 15 H -12 V -7 H 4 V 7 H -4" stroke-width="1.5" fill="none"/>
</g>
<g transform="translate(811.20 140.95) rotate(371.25)" opacity="0.7">
<path d="M -12 -15 H 12 V 15 H -12 V -7 H 4 V 7 H -4" stroke-width="1.5" fill="none"/>
</g>
<g transform="translate(865.46 154.54) rotate(376.88)" opacity="0.7">
<path d="M -12 -15 H 12 V 15 H -12 V -7 H 4 V 7 H -4" stroke-width="1.5" fill="none"/>
</g>
<g transform="translate(918.13 173.39) rotate(382.50)" opacity="0.7">
<path d="M -12 -15 H 12 V 15 H -12 V -7 H 4 V 7 H -4" stroke-width="1.5" fill="none"/>
</g>
<g transform="translate(968.70 197.30) rotate(388.12)" opacity="0.7">
<path d="M -12 -15 H 12 V 15 H -12 V -7 H 4 V 7 H -4" stroke-width="1.5" fill="none"/>
</g>
<g transform="translate(1016.68 226.06) rotate(393.75)" opacity="0.7">
<path d="M -12 -15 H 12 V 15 H -12 V -7 H 4 V 7 H -4" stroke-width="1.5" fill="none"/>
</g>
<g transform="translate(1061.60 259.38) rotate(399.38)" opacity="0.7">
<path d="M -12 -15 H 12 V 15 H -12 V -7 H 4 V 7 H -4" stroke-width="1.5" fill="none"/>
</g>
<g transform="translate(1103.05 296.95) rotate(405.00)" opacity="0.7">
<path d="M -12 -15 H 12 V 15 H -12 V -7 H 4 V 7 H -4" stroke-width="1.5" fill="none"/>
</g>
<g transform="translate(1140.62 338.40) rotate(410.62)" opacity="0.7">
<path d="M -12 -15 H 12 V 15 H -12 V -7 H 4 V 7 H -4" stroke-width="1.5" fill="none"/>
</g>
<g transform="translate(1173.94 383.32) rotate(416.25)" opacity="0.7">
<path d="M -12 -15 H 12 V 15 H -12 V -7 H 4 V 7 H -4" stroke-width="1.5" fill="none"/>
</g>
<g transform="translate(1202.70 431.30) rotate(421.88)" opacity="0.7">
<path d="M -12 -15 H 12 V 15 H -12 V -7 H 4 V 7 H -4" stroke-width="1.5" fill="none"/>
</g>
<g transform="translate(1226.61 481.87) rotate(427.50)" opacity="0.7">
<path d="M -12 -15 H 12 V 15 H -12 V -7 H 4 V 7 H -4" stroke-width="1.5" fill="none"/>
</g>
<g transform="translate(1245.46 534.54) rotate(433.12)" opacity="0.7">
<path d="M -12 -15 H 12 V 15 H -12 V -7 H 4 V 7 H -4" stroke-width="1.5" fill="none"/>
</g>
<g transform="translate(1259.05 588.80) rotate(438.75)" opacity="0.7">
<path d="M -12 -15 H 12 V 15 H -12 V -7 H 4 V 7 H -4" stroke-width="1.5" fill="none"/>
</g>
<g transform="translate(1267.26 644.13) rotate(444.38)" opacity="0.7">
<path d="M -12 -15 H 12 V 15 H -12 V -7 H 4 V 7 H -4" stroke-width="1.5" fill="none"/>
</g>
<g transform="translate(700.00 84.00)" opacity="0.95">
<circle r="27" fill="rgba(247,242,233,0.3)" stroke-width="2.8"/>
<rect x="-11" y="-11" width="22" height="22" rx="1.8" stroke-width="2"/>
</g>
<g transform="translate(1316.00 700.00)" opacity="0.95">
<circle r="27" fill="rgba(247,242,233,0.3)" stroke-width="2.8"/>
<rect x="-11" y="-11" width="22" height="22" rx="1.8" stroke-width="2"/>
</g>
<g transform="translate(700.00 1316.00)" opacity="0.95">
<circle r="27" fill="rgba(247,242,233,0.3)" stroke-width="2.8"/>
<rect x="-11" y="-11" width="22" height="22" rx="1.8" stroke-width="2"/>
</g>
<g transform="translate(84.00 700.00)" opacity="0.95">
<circle r="27" fill="rgba(247,242,233,0.3)" stroke-width="2.8"/>
<rect x="-11" y="-11" width="22" height="22" rx="1.8" stroke-width="2"/>
</g>
<path d="M 180.0 203.0 C 202.0 175.0, 225.0 179.0, 238.0 197.0 C 247.0 179.0, 277.0 184.0, 279.0 209.0 C 294.0 197.0, 315.0 202.0, 316.0 219.0 C 306.0 231.0, 279.0 228.0, 263.0 219.0 C 250.0 233.0, 222.0 233.0, 202.0 221.0" stroke-width="2.1" opacity="0.78"/>
<path d="M 1135.0 203.0 C 1157.0 175.0, 1180.0 179.0, 1193.0 197.0 C 1202.0 179.0, 1232.0 184.0, 1234.0 209.0 C 1249.0 197.0, 1270.0 202.0, 1271.0 219.0 C 1261.0 231.0, 1234.0 228.0, 1218.0 219.0 C 1205.0 233.0, 1177.0 233.0, 1157.0 221.0" stroke-width="2.1" opacity="0.78"/>
<path d="M 185.0 1210.0 C 207.0 1182.0, 230.0 1186.0, 243.0 1204.0 C 252.0 1186.0, 282.0 1191.0, 284.0 1216.0 C 299.0 1204.0, 320.0 1209.0, 321.0 1226.0 C 311.0 1238.0, 284.0 1235.0, 268.0 1226.0 C 255.0 1240.0, 227.0 1240.0, 207.0 1228.0" stroke-width="2.1" opacity="0.78"/>
<path d="M 1130.0 1210.0 C 1152.0 1182.0, 1175.0 1186.0, 1188.0 1204.0 C 1197.0 1186.0, 1227.0 1191.0, 1229.0 1216.0 C 1244.0 1204.0, 1265.0 1209.0, 1266.0 1226.0 C 1256.0 1238.0, 1229.0 1235.0, 1213.0 1226.0 C 1200.0 1240.0, 1172.0 1240.0, 1152.0 1228.0" stroke-width="2.1" opacity="0.78"/>
</g></svg>