<svg xmlns="http://www.w3.org/2000/svg" width="1300" height="1300" viewBox="0 0 1300 1300" fill="none">
<defs>
  <radialGradient id="petal" cx="50%" cy="50%" r="60%">
    <stop offset="0%" stop-color="#FFF7F8"/>
    <stop offset="68%" stop-color="#F6D6DD"/>
    <stop offset="100%" stop-color="#EDC1CB"/>
  </radialGradient>
</defs>
<g stroke-linecap="round" stroke-linejoin="round">
  <g stroke="#A67947" opacity="0.95">
    <path d="M 1280 120 C 1185 140, 1108 180, 1026 260 C 978 305, 890 332, 816 336 C 708 343, 620 316, 520 264 C 424 214, 340 191, 280 188" stroke-width="4.2"/>
    <path d="M 1132 188 C 1110 270, 1092 370, 1095 476 C 1097 590, 1058 685, 980 790 C 932 855, 906 914, 886 1016" stroke-width="3.8"/>
    <path d="M 818 336 C 768 384, 718 428, 644 452" stroke-width="2.4"/>
    <path d="M 1085 430 C 1032 462, 984 505, 953 556" stroke-width="2.4"/>
    <path d="M 964 832 C 996 868, 1018 908, 1023 960" stroke-width="2.2"/>
    <path d="M 1004 234 C 1035 212, 1068 198, 1110 192" stroke-width="2.2"/>
  </g>
<g transform="translate(868 286) rotate(-22)" stroke="#90A38E" fill="#C0CCBA" opacity="0.88">
<path d="M0 0 C 24 -28, 52 -38, 89 -44 C 70 -12, 53 20, 11 41 C -4 23, -7 12, 0 0 Z" stroke-width="1.8" fill-opacity="0.55"/>
<path d="M8 2 C 28 -2, 48 -8, 78 -31" stroke-width="1.2" fill="none" opacity="0.8"/>
</g>
<g transform="translate(965 392) rotate(18)" stroke="#90A38E" fill="#C0CCBA" opacity="0.88">
<path d="M0 0 C 24 -28, 52 -38, 89 -44 C 70 -12, 53 20, 11 41 C -4 23, -7 12, 0 0 Z" stroke-width="1.8" fill-opacity="0.55"/>
<path d="M8 2 C 28 -2, 48 -8, 78 -31" stroke-width="1.2" fill="none" opacity="0.8"/>
</g>
<g transform="translate(1150 300) rotate(22)" stroke="#90A38E" fill="#C0CCBA" opacity="0.88">
<path d="M0 0 C 24 -28, 52 -38, 89 -44 C 70 -12, 53 20, 11 41 C -4 23, -7 12, 0 0 Z" stroke-width="1.8" fill-opacity="0.55"/>
<path d="M8 2 C 28 -2, 48 -8, 78 -31" stroke-width="1.2" fill="none" opacity="0.8"/>
</g>
<g transform="translate(810 265)" opacity="0.98">
<g transform="rotate(-90.00) translate(0.00 -15.12)">
<path d="M0 0 C 13.4 -28.6, 37.0 -31.9, 40.3 0 C 37.0 31.9, 13.4 28.6, 0 0 Z" fill="url(#petal)" stroke="#D8B06A" stroke-width="1.4"/>
</g>
<g transform="rotate(-18.00) translate(14.38 -4.67)">
<path d="M0 0 C 13.4 -28.6, 37.0 -31.9, 40.3 0 C 37.0 31.9, 13.4 28.6, 0 0 Z" fill="url(#petal)" stroke="#D8B06A" stroke-width="1.4"/>
</g>
<g transform="rotate(54.00) translate(8.89 12.23)">
<path d="M0 0 C 13.4 -28.6, 37.0 -31.9, 40.3 0 C 37.0 31.9, 13.4 28.6, 0 0 Z" fill="url(#petal)" stroke="#D8B06A" stroke-width="1.4"/>
</g>
<g transform="rotate(126.00) translate(-8.89 12.23)">
<path d="M0 0 C 13.4 -28.6, 37.0 -31.9, 40.3 0 C 37.0 31.9, 13.4 28.6, 0 0 Z" fill="url(#petal)" stroke="#D8B06A" stroke-width="1.4"/>
</g>
<g transform="rotate(198.00) translate(-14.38 -4.67)">
<path d="M0 0 C 13.4 -28.6, 37.0 -31.9, 40.3 0 C 37.0 31.9, 13.4 28.6, 0 0 Z" fill="url(#petal)" stroke="#D8B06A" stroke-width="1.4"/>
</g>
<circle cx="0" cy="0" r="10.1" fill="#F8E6A9" stroke="#D8B06A" stroke-width="1.2"/>
<path d="M 3.4 0.0 L 20.2 0.0" stroke="#B07B41" stroke-width="0.9" opacity="0.8"/>
<circle cx="20.2" cy="0.0" r="1.6" fill="#B07B41" stroke="none" opacity="0.8"/>
<path d="M 3.2 1.1 L 18.9 6.9" stroke="#B07B41" stroke-width="0.9" opacity="0.8"/>
<circle cx="18.9" cy="6.9" r="1.6" fill="#B07B41" stroke="none" opacity="0.8"/>
<path d="M 2.6 2.2 L 15.4 13.0" stroke="#B07B41" stroke-width="0.9" opacity="0.8"/>
<circle cx="15.4" cy="13.0" r="1.6" fill="#B07B41" stroke="none" opacity="0.8"/>
<path d="M 1.7 2.9 L 10.1 17.5" stroke="#B07B41" stroke-width="0.9" opacity="0.8"/>
<circle cx="10.1" cy="17.5" r="1.6" fill="#B07B41" stroke="none" opacity="0.8"/>
<path d="M 0.6 3.3 L 3.5 19.9" stroke="#B07B41" stroke-width="0.9" opacity="0.8"/>
<circle cx="3.5" cy="19.9" r="1.6" fill="#B07B41" stroke="none" opacity="0.8"/>
<path d="M -0.6 3.3 L -3.5 19.9" stroke="#B07B41" stroke-width="0.9" opacity="0.8"/>
<circle cx="-3.5" cy="19.9" r="1.6" fill="#B07B41" stroke="none" opacity="0.8"/>
<path d="M -1.7 2.9 L -10.1 17.5" stroke="#B07B41" stroke-width="0.9" opacity="0.8"/>
<circle cx="-10.1" cy="17.5" r="1.6" fill="#B07B41" stroke="none" opacity="0.8"/>
<path d="M -2.6 2.2 L -15.4 13.0" stroke="#B07B41" stroke-width="0.9" opacity="0.8"/>
<circle cx="-15.4" cy="13.0" r="1.6" fill="#B07B41" stroke="none" opacity="0.8"/>
<path d="M -3.2 1.1 L -18.9 6.9" stroke="#B07B41" stroke-width="0.9" opacity="0.8"/>
<circle cx="-18.9" cy="6.9" r="1.6" fill="#B07B41" stroke="none" opacity="0.8"/>
<path d="M -3.4 0.0 L -20.2 0.0" stroke="#B07B41" stroke-width="0.9" opacity="0.8"/>
<circle cx="-20.2" cy="0.0" r="1.6" fill="#B07B41" stroke="none" opacity="0.8"/>
<path d="M -3.2 -1.1 L -18.9 -6.9" stroke="#B07B41" stroke-width="0.9" opacity="0.8"/>
<circle cx="-18.9" cy="-6.9" r="1.6" fill="#B07B41" stroke="none" opacity="0.8"/>
<path d="M -2.6 -2.2 L -15.4 -13.0" stroke="#B07B41" stroke-width="0.9" opacity="0.8"/>
<circle cx="-15.4" cy="-13.0" r="1.6" fill="#B07B41" stroke="none" opacity="0.8"/>
<path d="M -1.7 -2.9 L -10.1 -17.5" stroke="#B07B41" stroke-width="0.9" opacity="0.8"/>
<circle cx="-10.1" cy="-17.5" r="1.6" fill="#B07B41" stroke="none" opacity="0.8"/>
<path d="M -0.6 -3.3 L -3.5 -19.9" stroke="#B07B41" stroke-width="0.9" opacity="0.8"/>
<circle cx="-3.5" cy="-19.9" r="1.6" fill="#B07B41" stroke="none" opacity="0.8"/>
<path d="M 0.6 -3.3 L 3.5 -19.9" stroke="#B07B41" stroke-width="0.9" opacity="0.8"/>
<circle cx="3.5" cy="-19.9" r="1.6" fill="#B07B41" stroke="none" opacity="0.8"/>
<path d="M 1.7 -2.9 L 10.1 -17.5" stroke="#B07B41" stroke-width="0.9" opacity="0.8"/>
<circle cx="10.1" cy="-17.5" r="1.6" fill="#B07B41" stroke="none" opacity="0.8"/>
<path d="M 2.6 -2.2 L 15.4 -13.0" stroke="#B07B41" stroke-width="0.9" opacity="0.8"/>
<circle cx="15.4" cy="-13.0" r="1.6" fill="#B07B41" stroke="none" opacity="0.8"/>
<path d="M 3.2 -1.1 L 18.9 -6.9" stroke="#B07B41" stroke-width="0.9" opacity="0.8"/>
<circle cx="18.9" cy="-6.9" r="1.6" fill="#B07B41" stroke="none" opacity="0.8"/>
</g>
<g transform="translate(936 286)" opacity="0.98">
<g transform="rotate(-90.00) translate(0.00 -16.56)">
<path d="M0 0 C 14.7 -31.3, 40.5 -35.0, 44.2 0 C 40.5 35.0, 14.7 31.3, 0 0 Z" fill="url(#petal)" stroke="#D8B06A" stroke-width="1.4"/>
</g>
<g transform="rotate(-18.00) translate(15.75 -5.12)">
<path d="M0 0 C 14.7 -31.3, 40.5 -35.0, 44.2 0 C 40.5 35.0, 14.7 31.3, 0 0 Z" fill="url(#petal)" stroke="#D8B06A" stroke-width="1.4"/>
</g>
<g transform="rotate(54.00) translate(9.73 13.40)">
<path d="M0 0 C 14.7 -31.3, 40.5 -35.0, 44.2 0 C 40.5 35.0, 14.7 31.3, 0 0 Z" fill="url(#petal)" stroke="#D8B06A" stroke-width="1.4"/>
</g>
<g transform="rotate(126.00) translate(-9.73 13.40)">
<path d="M0 0 C 14.7 -31.3, 40.5 -35.0, 44.2 0 C 40.5 35.0, 14.7 31.3, 0 0 Z" fill="url(#petal)" stroke="#D8B06A" stroke-width="1.4"/>
</g>
<g transform="rotate(198.00) translate(-15.75 -5.12)">
<path d="M0 0 C 14.7 -31.3, 40.5 -35.0, 44.2 0 C 40.5 35.0, 14.7 31.3, 0 0 Z" fill="url(#petal)" stroke="#D8B06A" stroke-width="1.4"/>
</g>
<circle cx="0" cy="0" r="11.0" fill="#F8E6A9" stroke="#D8B06A" stroke-width="1.2"/>
<path d="M 3.7 0.0 L 22.1 0.0" stroke="#B07B41" stroke-width="0.9" opacity="0.8"/>
<circle cx="22.1" cy="0.0" r="1.6" fill="#B07B41" stroke="none" opacity="0.8"/>
<path d="M 3.5 1.3 L 20.7 7.6" stroke="#B07B41" stroke-width="0.9" opacity="0.8"/>
<circle cx="20.7" cy="7.6" r="1.6" fill="#B07B41" stroke="none" opacity="0.8"/>
<path d="M 2.8 2.4 L 16.9 14.2" stroke="#B07B41" stroke-width="0.9" opacity="0.8"/>
<circle cx="16.9" cy="14.2" r="1.6" fill="#B07B41" stroke="none" opacity="0.8"/>
<path d="M 1.8 3.2 L 11.0 19.1" stroke="#B07B41" stroke-width="0.9" opacity="0.8"/>
<circle cx="11.0" cy="19.1" r="1.6" fill="#B07B41" stroke="none" opacity="0.8"/>
<path d="M 0.6 3.6 L 3.8 21.7" stroke="#B07B41" stroke-width="0.9" opacity="0.8"/>
<circle cx="3.8" cy="21.7" r="1.6" fill="#B07B41" stroke="none" opacity="0.8"/>
<path d="M -0.6 3.6 L -3.8 21.7" stroke="#B07B41" stroke-width="0.9" opacity="0.8"/>
<circle cx="-3.8" cy="21.7" r="1.6" fill="#B07B41" stroke="none" opacity="0.8"/>
<path d="M -1.8 3.2 L -11.0 19.1" stroke="#B07B41" stroke-width="0.9" opacity="0.8"/>
<circle cx="-11.0" cy="19.1" r="1.6" fill="#B07B41" stroke="none" opacity="0.8"/>
<path d="M -2.8 2.4 L -16.9 14.2" stroke="#B07B41" stroke-width="0.9" opacity="0.8"/>
<circle cx="-16.9" cy="14.2" r="1.6" fill="#B07B41" stroke="none" opacity="0.8"/>
<path d="M -3.5 1.3 L -20.7 7.6" stroke="#B07B41" stroke-width="0.9" opacity="0.8"/>
<circle cx="-20.7" cy="7.6" r="1.6" fill="#B07B41" stroke="none" opacity="0.8"/>
<path d="M -3.7 0.0 L -22.1 0.0" stroke="#B07B41" stroke-width="0.9" opacity="0.8"/>
<circle cx="-22.1" cy="0.0" r="1.6" fill="#B07B41" stroke="none" opacity="0.8"/>
<path d="M -3.5 -1.3 L -20.7 -7.6" stroke="#B07B41" stroke-width="0.9" opacity="0.8"/>
<circle cx="-20.7" cy="-7.6" r="1.6" fill="#B07B41" stroke="none" opacity="0.8"/>
<path d="M -2.8 -2.4 L -16.9 -14.2" stroke="#B07B41" stroke-width="0.9" opacity="0.8"/>
<circle cx="-16.9" cy="-14.2" r="1.6" fill="#B07B41" stroke="none" opacity="0.8"/>
<path d="M -1.8 -3.2 L -11.0 -19.1" stroke="#B07B41" stroke-width="0.9" opacity="0.8"/>
<circle cx="-11.0" cy="-19.1" r="1.6" fill="#B07B41" stroke="none" opacity="0.8"/>
<path d="M -0.6 -3.6 L -3.8 -21.7" stroke="#B07B41" stroke-width="0.9" opacity="0.8"/>
<circle cx="-3.8" cy="-21.7" r="1.6" fill="#B07B41" stroke="none" opacity="0.8"/>
<path d="M 0.6 -3.6 L 3.8 -21.7" stroke="#B07B41" stroke-width="0.9" opacity="0.8"/>
<circle cx="3.8" cy="-21.7" r="1.6" fill="#B07B41" stroke="none" opacity="0.8"/>
<path d="M 1.8 -3.2 L 11.0 -19.1" stroke="#B07B41" stroke-width="0.9" opacity="0.8"/>
<circle cx="11.0" cy="-19.1" r="1.6" fill="#B07B41" stroke="none" opacity="0.8"/>
<path d="M 2.8 -2.4 L 16.9 -14.2" stroke="#B07B41" stroke-width="0.9" opacity="0.8"/>
<circle cx="16.9" cy="-14.2" r="1.6" fill="#B07B41" stroke="none" opacity="0.8"/>
<path d="M 3.5 -1.3 L 20.7 -7.6" stroke="#B07B41" stroke-width="0.9" opacity="0.8"/>
<circle cx="20.7" cy="-7.6" r="1.6" fill="#B07B41" stroke="none" opacity="0.8"/>
</g>
<g transform="translate(1058 366)" opacity="0.98">
<g transform="rotate(-90.00) translate(0.00 -14.76)">
<path d="M0 0 C 13.1 -27.9, 36.1 -31.2, 39.4 0 C 36.1 31.2, 13.1 27.9, 0 0 Z" fill="url(#petal)" stroke="#D8B06A" stroke-width="1.4"/>
</g>
<g transform="rotate(-18.00) translate(14.04 -4.56)">
<path d="M0 0 C 13.1 -27.9, 36.1 -31.2, 39.4 0 C 36.1 31.2, 13.1 27.9, 0 0 Z" fill="url(#petal)" stroke="#D8B06A" stroke-width="1.4"/>
</g>
<g transform="rotate(54.00) translate(8.68 11.94)">
<path d="M0 0 C 13.1 -27.9, 36.1 -31.2, 39.4 0 C 36.1 31.2, 13.1 27.9, 0 0 Z" fill="url(#petal)" stroke="#D8B06A" stroke-width="1.4"/>
</g>
<g transform="rotate(126.00) translate(-8.68 11.94)">
<path d="M0 0 C 13.1 -27.9, 36.1 -31.2, 39.4 0 C 36.1 31.2, 13.1 27.9, 0 0 Z" fill="url(#petal)" stroke="#D8B06A" stroke-width="1.4"/>
</g>
<g transform="rotate(198.00) translate(-14.04 -4.56)">
<path d="M0 0 C 13.1 -27.9, 36.1 -31.2, 39.4 0 C 36.1 31.2, 13.1 27.9, 0 0 Z" fill="url(#petal)" stroke="#D8B06A" stroke-width="1.4"/>
</g>
<circle cx="0" cy="0" r="9.8" fill="#F8E6A9" stroke="#D8B06A" stroke-width="1.2"/>
<path d="M 3.3 0.0 L 19.7 0.0" stroke="#B07B41" stroke-width="0.9" opacity="0.8"/>
<circle cx="19.7" cy="0.0" r="1.6" fill="#B07B41" stroke="none" opacity="0.8"/>
<path d="M 3.1 1.1 L 18.5 6.7" stroke="#B07B41" stroke-width="0.9" opacity="0.8"/>
<circle cx="18.5" cy="6.7" r="1.6" fill="#B07B41" stroke="none" opacity="0.8"/>
<path d="M 2.5 2.1 L 15.1 12.7" stroke="#B07B41" stroke-width="0.9" opacity="0.8"/>
<circle cx="15.1" cy="12.7" r="1.6" fill="#B07B41" stroke="none" opacity="0.8"/>
<path d="M 1.6 2.8 L 9.8 17.0" stroke="#B07B41" stroke-width="0.9" opacity="0.8"/>
<circle cx="9.8" cy="17.0" r="1.6" fill="#B07B41" stroke="none" opacity="0.8"/>
<path d="M 0.6 3.2 L 3.4 19.4" stroke="#B07B41" stroke-width="0.9" opacity="0.8"/>
<circle cx="3.4" cy="19.4" r="1.6" fill="#B07B41" stroke="none" opacity="0.8"/>
<path d="M -0.6 3.2 L -3.4 19.4" stroke="#B07B41" stroke-width="0.9" opacity="0.8"/>
<circle cx="-3.4" cy="19.4" r="1.6" fill="#B07B41" stroke="none" opacity="0.8"/>
<path d="M -1.6 2.8 L -9.8 17.0" stroke="#B07B41" stroke-width="0.9" opacity="0.8"/>
<circle cx="-9.8" cy="17.0" r="1.6" fill="#B07B41" stroke="none" opacity="0.8"/>
<path d="M -2.5 2.1 L -15.1 12.7" stroke="#B07B41" stroke-width="0.9" opacity="0.8"/>
<circle cx="-15.1" cy="12.7" r="1.6" fill="#B07B41" stroke="none" opacity="0.8"/>
<path d="M -3.1 1.1 L -18.5 6.7" stroke="#B07B41" stroke-width="0.9" opacity="0.8"/>
<circle cx="-18.5" cy="6.7" r="1.6" fill="#B07B41" stroke="none" opacity="0.8"/>
<path d="M -3.3 0.0 L -19.7 0.0" stroke="#B07B41" stroke-width="0.9" opacity="0.8"/>
<circle cx="-19.7" cy="0.0" r="1.6" fill="#B07B41" stroke="none" opacity="0.8"/>
<path d="M -3.1 -1.1 L -18.5 -6.7" stroke="#B07B41" stroke-width="0.9" opacity="0.8"/>
<circle cx="-18.5" cy="-6.7" r="1.6" fill="#B07B41" stroke="none" opacity="0.8"/>
<path d="M -2.5 -2.1 L -15.1 -12.7" stroke="#B07B41" stroke-width="0.9" opacity="0.8"/>
<circle cx="-15.1" cy="-12.7" r="1.6" fill="#B07B41" stroke="none" opacity="0.8"/>
<path d="M -1.6 -2.8 L -9.8 -17.0" stroke="#B07B41" stroke-width="0.9" opacity="0.8"/>
<circle cx="-9.8" cy="-17.0" r="1.6" fill="#B07B41" stroke="none" opacity="0.8"/>
<path d="M -0.6 -3.2 L -3.4 -19.4" stroke="#B07B41" stroke-width="0.9" opacity="0.8"/>
<circle cx="-3.4" cy="-19.4" r="1.6" fill="#B07B41" stroke="none" opacity="0.8"/>
<path d="M 0.6 -3.2 L 3.4 -19.4" stroke="#B07B41" stroke-width="0.9" opacity="0.8"/>
<circle cx="3.4" cy="-19.4" r="1.6" fill="#B07B41" stroke="none" opacity="0.8"/>
<path d="M 1.6 -2.8 L 9.8 -17.0" stroke="#B07B41" stroke-width="0.9" opacity="0.8"/>
<circle cx="9.8" cy="-17.0" r="1.6" fill="#B07B41" stroke="none" opacity="0.8"/>
<path d="M 2.5 -2.1 L 15.1 -12.7" stroke="#B07B41" stroke-width="0.9" opacity="0.8"/>
<circle cx="15.1" cy="-12.7" r="1.6" fill="#B07B41" stroke="none" opacity="0.8"/>
<path d="M 3.1 -1.1 L 18.5 -6.7" stroke="#B07B41" stroke-width="0.9" opacity="0.8"/>
<circle cx="18.5" cy="-6.7" r="1.6" fill="#B07B41" stroke="none" opacity="0.8"/>
</g>
<g transform="translate(1146 256)" opacity="0.98">
<g transform="rotate(-90.00) translate(0.00 -13.68)">
<path d="M0 0 C 12.2 -25.8, 33.4 -28.9, 36.5 0 C 33.4 28.9, 12.2 25.8, 0 0 Z" fill="url(#petal)" stroke="#D8B06A" stroke-width="1.4"/>
</g>
<g transform="rotate(-18.00) translate(13.01 -4.23)">
<path d="M0 0 C 12.2 -25.8, 33.4 -28.9, 36.5 0 C 33.4 28.9, 12.2 25.8, 0 0 Z" fill="url(#petal)" stroke="#D8B06A" stroke-width="1.4"/>
</g>
<g transform="rotate(54.00) translate(8.04 11.07)">
<path d="M0 0 C 12.2 -25.8, 33.4 -28.9, 36.5 0 C 33.4 28.9, 12.2 25.8, 0 0 Z" fill="url(#petal)" stroke="#D8B06A" stroke-width="1.4"/>
</g>
<g transform="rotate(126.00) translate(-8.04 11.07)">
<path d="M0 0 C 12.2 -25.8, 33.4 -28.9, 36.5 0 C 33.4 28.9, 12.2 25.8, 0 0 Z" fill="url(#petal)" stroke="#D8B06A" stroke-width="1.4"/>
</g>
<g transform="rotate(198.00) translate(-13.01 -4.23)">
<path d="M0 0 C 12.2 -25.8, 33.4 -28.9, 36.5 0 C 33.4 28.9, 12.2 25.8, 0 0 Z" fill="url(#petal)" stroke="#D8B06A" stroke-width="1.4"/>
</g>
<circle cx="0" cy="0" r="9.1" fill="#F8E6A9" stroke="#D8B06A" stroke-width="1.2"/>
<path d="M 3.0 0.0 L 18.2 0.0" stroke="#B07B41" stroke-width="0.9" opacity="0.8"/>
<circle cx="18.2" cy="0.0" r="1.6" fill="#B07B41" stroke="none" opacity="0.8"/>
<path d="M 2.9 1.0 L 17.1 6.2" stroke="#B07B41" stroke-width="0.9" opacity="0.8"/>
<circle cx="17.1" cy="6.2" r="1.6" fill="#B07B41" stroke="none" opacity="0.8"/>
<path d="M 2.3 2.0 L 14.0 11.7" stroke="#B07B41" stroke-width="0.9" opacity="0.8"/>
<circle cx="14.0" cy="11.7" r="1.6" fill="#B07B41" stroke="none" opacity="0.8"/>
<path d="M 1.5 2.6 L 9.1 15.8" stroke="#B07B41" stroke-width="0.9" opacity="0.8"/>
<circle cx="9.1" cy="15.8" r="1.6" fill="#B07B41" stroke="none" opacity="0.8"/>
<path d="M 0.5 3.0 L 3.2 18.0" stroke="#B07B41" stroke-width="0.9" opacity="0.8"/>
<circle cx="3.2" cy="18.0" r="1.6" fill="#B07B41" stroke="none" opacity="0.8"/>
<path d="M -0.5 3.0 L -3.2 18.0" stroke="#B07B41" stroke-width="0.9" opacity="0.8"/>
<circle cx="-3.2" cy="18.0" r="1.6" fill="#B07B41" stroke="none" opacity="0.8"/>
<path d="M -1.5 2.6 L -9.1 15.8" stroke="#B07B41" stroke-width="0.9" opacity="0.8"/>
<circle cx="-9.1" cy="15.8" r="1.6" fill="#B07B41" stroke="none" opacity="0.8"/>
<path d="M -2.3 2.0 L -14.0 11.7" stroke="#B07B41" stroke-width="0.9" opacity="0.8"/>
<circle cx="-14.0" cy="11.7" r="1.6" fill="#B07B41" stroke="none" opacity="0.8"/>
<path d="M -2.9 1.0 L -17.1 6.2" stroke="#B07B41" stroke-width="0.9" opacity="0.8"/>
<circle cx="-17.1" cy="6.2" r="1.6" fill="#B07B41" stroke="none" opacity="0.8"/>
<path d="M -3.0 0.0 L -18.2 0.0" stroke="#B07B41" stroke-width="0.9" opacity="0.8"/>
<circle cx="-18.2" cy="0.0" r="1.6" fill="#B07B41" stroke="none" opacity="0.8"/>
<path d="M -2.9 -1.0 L -17.1 -6.2" stroke="#B07B41" stroke-width="0.9" opacity="0.8"/>
<circle cx="-17.1" cy="-6.2" r="1.6" fill="#B07B41" stroke="none" opacity="0.8"/>
<path d="M -2.3 -2.0 L -14.0 -11.7" stroke="#B07B41" stroke-width="0.9" opacity="0.8"/>
<circle cx="-14.0" cy="-11.7" r="1.6" fill="#B07B41" stroke="none" opacity="0.8"/>
<path d="M -1.5 -2.6 L -9.1 -15.8" stroke="#B07B41" stroke-width="0.9" opacity="0.8"/>
<circle cx="-9.1" cy="-15.8" r="1.6" fill="#B07B41" stroke="none" opacity="0.8"/>
<path d="M -0.5 -3.0 L -3.2 -18.0" stroke="#B07B41" stroke-width="0.9" opacity="0.8"/>
<circle cx="-3.2" cy="-18.0" r="1.6" fill="#B07B41" stroke="none" opacity="0.8"/>
<path d="M 0.5 -3.0 L 3.2 -18.0" stroke="#B07B41" stroke-width="0.9" opacity="0.8"/>
<circle cx="3.2" cy="-18.0" r="1.6" fill="#B07B41" stroke="none" opacity="0.8"/>
<path d="M 1.5 -2.6 L 9.1 -15.8" stroke="#B07B41" stroke-width="0.9" opacity="0.8"/>
<circle cx="9.1" cy="-15.8" r="1.6" fill="#B07B41" stroke="none" opacity="0.8"/>
<path d="M 2.3 -2.0 L 14.0 -11.7" stroke="#B07B41" stroke-width="0.9" opacity="0.8"/>
<circle cx="14.0" cy="-11.7" r="1.6" fill="#B07B41" stroke="none" opacity="0.8"/>
<path d="M 2.9 -1.0 L 17.1 -6.2" stroke="#B07B41" stroke-width="0.9" opacity="0.8"/>
<circle cx="17.1" cy="-6.2" r="1.6" fill="#B07B41" stroke="none" opacity="0.8"/>
</g>
<g transform="translate(1020 540)" opacity="0.98">
<g transform="rotate(-90.00) translate(0.00 -14.04)">
<path d="M0 0 C 12.5 -26.5, 34.3 -29.6, 37.4 0 C 34.3 29.6, 12.5 26.5, 0 0 Z" fill="url(#petal)" stroke="#D8B06A" stroke-width="1.4"/>
</g>
<g transform="rotate(-18.00) translate(13.35 -4.34)">
<path d="M0 0 C 12.5 -26.5, 34.3 -29.6, 37.4 0 C 34.3 29.6, 12.5 26.5, 0 0 Z" fill="url(#petal)" stroke="#D8B06A" stroke-width="1.4"/>
</g>
<g transform="rotate(54.00) translate(8.25 11.36)">
<path d="M0 0 C 12.5 -26.5, 34.3 -29.6, 37.4 0 C 34.3 29.6, 12.5 26.5, 0 0 Z" fill="url(#petal)" stroke="#D8B06A" stroke-width="1.4"/>
</g>
<g transform="rotate(126.00) translate(-8.25 11.36)">
<path d="M0 0 C 12.5 -26.5, 34.3 -29.6, 37.4 0 C 34.3 29.6, 12.5 26.5, 0 0 Z" fill="url(#petal)" stroke="#D8B06A" stroke-width="1.4"/>
</g>
<g transform="rotate(198.00) translate(-13.35 -4.34)">
<path d="M0 0 C 12.5 -26.5, 34.3 -29.6, 37.4 0 C 34.3 29.6, 12.5 26.5, 0 0 Z" fill="url(#petal)" stroke="#D8B06A" stroke-width="1.4"/>
</g>
<circle cx="0" cy="0" r="9.4" fill="#F8E6A9" stroke="#D8B06A" stroke-width="1.2"/>
<path d="M 3.1 0.0 L 18.7 0.0" stroke="#B07B41" stroke-width="0.9" opacity="0.8"/>
<circle cx="18.7" cy="0.0" r="1.6" fill="#B07B41" stroke="none" opacity="0.8"/>
<path d="M 2.9 1.1 L 17.6 6.4" stroke="#B07B41" stroke-width="0.9" opacity="0.8"/>
<circle cx="17.6" cy="6.4" r="1.6" fill="#B07B41" stroke="none" opacity="0.8"/>
<path d="M 2.4 2.0 L 14.3 12.0" stroke="#B07B41" stroke-width="0.9" opacity="0.8"/>
<circle cx="14.3" cy="12.0" r="1.6" fill="#B07B41" stroke="none" opacity="0.8"/>
<path d="M 1.6 2.7 L 9.4 16.2" stroke="#B07B41" stroke-width="0.9" opacity="0.8"/>
<circle cx="9.4" cy="16.2" r="1.6" fill="#B07B41" stroke="none" opacity="0.8"/>
<path d="M 0.5 3.1 L 3.3 18.4" stroke="#B07B41" stroke-width="0.9" opacity="0.8"/>
<circle cx="3.3" cy="18.4" r="1.6" fill="#B07B41" stroke="none" opacity="0.8"/>
<path d="M -0.5 3.1 L -3.3 18.4" stroke="#B07B41" stroke-width="0.9" opacity="0.8"/>
<circle cx="-3.3" cy="18.4" r="1.6" fill="#B07B41" stroke="none" opacity="0.8"/>
<path d="M -1.6 2.7 L -9.4 16.2" stroke="#B07B41" stroke-width="0.9" opacity="0.8"/>
<circle cx="-9.4" cy="16.2" r="1.6" fill="#B07B41" stroke="none" opacity="0.8"/>
<path d="M -2.4 2.0 L -14.3 12.0" stroke="#B07B41" stroke-width="0.9" opacity="0.8"/>
<circle cx="-14.3" cy="12.0" r="1.6" fill="#B07B41" stroke="none" opacity="0.8"/>
<path d="M -2.9 1.1 L -17.6 6.4" stroke="#B07B41" stroke-width="0.9" opacity="0.8"/>
<circle cx="-17.6" cy="6.4" r="1.6" fill="#B07B41" stroke="none" opacity="0.8"/>
<path d="M -3.1 0.0 L -18.7 0.0" stroke="#B07B41" stroke-width="0.9" opacity="0.8"/>
<circle cx="-18.7" cy="0.0" r="1.6" fill="#B07B41" stroke="none" opacity="0.8"/>
<path d="M -2.9 -1.1 L -17.6 -6.4" stroke="#B07B41" stroke-width="0.9" opacity="0.8"/>
<circle cx="-17.6" cy="-6.4" r="1.6" fill="#B07B41" stroke="none" opacity="0.8"/>
<path d="M -2.4 -2.0 L -14.3 -12.0" stroke="#B07B41" stroke-width="0.9" opacity="0.8"/>
<circle cx="-14.3" cy="-12.0" r="1.6" fill="#B07B41" stroke="none" opacity="0.8"/>
<path d="M -1.6 -2.7 L -9.4 -16.2" stroke="#B07B41" stroke-width="0.9" opacity="0.8"/>
<circle cx="-9.4" cy="-16.2" r="1.6" fill="#B07B41" stroke="none" opacity="0.8"/>
<path d="M -0.5 -3.1 L -3.3 -18.4" stroke="#B07B41" stroke-width="0.9" opacity="0.8"/>
<circle cx="-3.3" cy="-18.4" r="1.6" fill="#B07B41" stroke="none" opacity="0.8"/>
<path d="M 0.5 -3.1 L 3.3 -18.4" stroke="#B07B41" stroke-width="0.9" opacity="0.8"/>
<circle cx="3.3" cy="-18.4" r="1.6" fill="#B07B41" stroke="none" opacity="0.8"/>
<path d="M 1.6 -2.7 L 9.4 -16.2" stroke="#B07B41" stroke-width="0.9" opacity="0.8"/>
<circle cx="9.4" cy="-16.2" r="1.6" fill="#B07B41" stroke="none" opacity="0.8"/>
<path d="M 2.4 -2.0 L 14.3 -12.0" stroke="#B07B41" stroke-width="0.9" opacity="0.8"/>
<circle cx="14.3" cy="-12.0" r="1.6" fill="#B07B41" stroke="none" opacity="0.8"/>
<path d="M 2.9 -1.1 L 17.6 -6.4" stroke="#B07B41" stroke-width="0.9" opacity="0.8"/>
<circle cx="17.6" cy="-6.4" r="1.6" fill="#B07B41" stroke="none" opacity="0.8"/>
</g>
<g transform="translate(1096 684)" opacity="0.98">
<g transform="rotate(-90.00) translate(0.00 -11.52)">
<path d="M0 0 C 10.2 -21.8, 28.2 -24.3, 30.7 0 C 28.2 24.3, 10.2 21.8, 0 0 Z" fill="url(#petal)" stroke="#D8B06A" stroke-width="1.4"/>
</g>
<g transform="rotate(-18.00) translate(10.96 -3.56)">
<path d="M0 0 C 10.2 -21.8, 28.2 -24.3, 30.7 0 C 28.2 24.3, 10.2 21.8, 0 0 Z" fill="url(#petal)" stroke="#D8B06A" stroke-width="1.4"/>
</g>
<g transform="rotate(54.00) translate(6.77 9.32)">
<path d="M0 0 C 10.2 -21.8, 28.2 -24.3, 30.7 0 C 28.2 24.3, 10.2 21.8, 0 0 Z" fill="url(#petal)" stroke="#D8B06A" stroke-width="1.4"/>
</g>
<g transform="rotate(126.00) translate(-6.77 9.32)">
<path d="M0 0 C 10.2 -21.8, 28.2 -24.3, 30.7 0 C 28.2 24.3, 10.2 21.8, 0 0 Z" fill="url(#petal)" stroke="#D8B06A" stroke-width="1.4"/>
</g>
<g transform="rotate(198.00) translate(-10.96 -3.56)">
<path d="M0 0 C 10.2 -21.8, 28.2 -24.3, 30.7 0 C 28.2 24.3, 10.2 21.8, 0 0 Z" fill="url(#petal)" stroke="#D8B06A" stroke-width="1.4"/>
</g>
<circle cx="0" cy="0" r="7.7" fill="#F8E6A9" stroke="#D8B06A" stroke-width="1.2"/>
<path d="M 2.6 0.0 L 15.4 0.0" stroke="#B07B41" stroke-width="0.9" opacity="0.8"/>
<circle cx="15.4" cy="0.0" r="1.6" fill="#B07B41" stroke="none" opacity="0.8"/>
<path d="M 2.4 0.9 L 14.4 5.3" stroke="#B07B41" stroke-width="0.9" opacity="0.8"/>
<circle cx="14.4" cy="5.3" r="1.6" fill="#B07B41" stroke="none" opacity="0.8"/>
<path d="M 2.0 1.6 L 11.8 9.9" stroke="#B07B41" stroke-width="0.9" opacity="0.8"/>
<circle cx="11.8" cy="9.9" r="1.6" fill="#B07B41" stroke="none" opacity="0.8"/>
<path d="M 1.3 2.2 L 7.7 13.3" stroke="#B07B41" stroke-width="0.9" opacity="0.8"/>
<circle cx="7.7" cy="13.3" r="1.6" fill="#B07B41" stroke="none" opacity="0.8"/>
<path d="M 0.4 2.5 L 2.7 15.1" stroke="#B07B41" stroke-width="0.9" opacity="0.8"/>
<circle cx="2.7" cy="15.1" r="1.6" fill="#B07B41" stroke="none" opacity="0.8"/>
<path d="M -0.4 2.5 L -2.7 15.1" stroke="#B07B41" stroke-width="0.9" opacity="0.8"/>
<circle cx="-2.7" cy="15.1" r="1.6" fill="#B07B41" stroke="none" opacity="0.8"/>
<path d="M -1.3 2.2 L -7.7 13.3" stroke="#B07B41" stroke-width="0.9" opacity="0.8"/>
<circle cx="-7.7" cy="13.3" r="1.6" fill="#B07B41" stroke="none" opacity="0.8"/>
<path d="M -2.0 1.6 L -11.8 9.9" stroke="#B07B41" stroke-width="0.9" opacity="0.8"/>
<circle cx="-11.8" cy="9.9" r="1.6" fill="#B07B41" stroke="none" opacity="0.8"/>
<path d="M -2.4 0.9 L -14.4 5.3" stroke="#B07B41" stroke-width="0.9" opacity="0.8"/>
<circle cx="-14.4" cy="5.3" r="1.6" fill="#B07B41" stroke="none" opacity="0.8"/>
<path d="M -2.6 0.0 L -15.4 0.0" stroke="#B07B41" stroke-width="0.9" opacity="0.8"/>
<circle cx="-15.4" cy="0.0" r="1.6" fill="#B07B41" stroke="none" opacity="0.8"/>
<path d="M -2.4 -0.9 L -14.4 -5.3" stroke="#B07B41" stroke-width="0.9" opacity="0.8"/>
<circle cx="-14.4" cy="-5.3" r="1.6" fill="#B07B41" stroke="none" opacity="0.8"/>
<path d="M -2.0 -1.6 L -11.8 -9.9" stroke="#B07B41" stroke-width="0.9" opacity="0.8"/>
<circle cx="-11.8" cy="-9.9" r="1.6" fill="#B07B41" stroke="none" opacity="0.8"/>
<path d="M -1.3 -2.2 L -7.7 -13.3" stroke="#B07B41" stroke-width="0.9" opacity="0.8"/>
<circle cx="-7.7" cy="-13.3" r="1.6" fill="#B07B41" stroke="none" opacity="0.8"/>
<path d="M -0.4 -2.5 L -2.7 -15.1" stroke="#B07B41" stroke-width="0.9" opacity="0.8"/>
<circle cx="-2.7" cy="-15.1" r="1.6" fill="#B07B41" stroke="none" opacity="0.8"/>
<path d="M 0.4 -2.5 L 2.7 -15.1" stroke="#B07B41" stroke-width="0.9" opacity="0.8"/>
<circle cx="2.7" cy="-15.1" r="1.6" fill="#B07B41" stroke="none" opacity="0.8"/>
<path d="M 1.3 -2.2 L 7.7 -13.3" stroke="#B07B41" stroke-width="0.9" opacity="0.8"/>
<circle cx="7.7" cy="-13.3" r="1.6" fill="#B07B41" stroke="none" opacity="0.8"/>
<path d="M 2.0 -1.6 L 11.8 -9.9" stroke="#B07B41" stroke-width="0.9" opacity="0.8"/>
<circle cx="11.8" cy="-9.9" r="1.6" fill="#B07B41" stroke="none" opacity="0.8"/>
<path d="M 2.4 -0.9 L 14.4 -5.3" stroke="#B07B41" stroke-width="0.9" opacity="0.8"/>
<circle cx="14.4" cy="-5.3" r="1.6" fill="#B07B41" stroke="none" opacity="0.8"/>
</g>
<g transform="translate(690 282) rotate(-25)" stroke="#D8B06A" opacity="0.92">
<path d="M0 0 C 5.5 -15.0, 14.5 -16.7, 17.6 0 C 14.5 16.7, 5.5 15.0, 0 0 Z" fill="url(#petal)" stroke-width="1.2"/>
<path d="M0 0 C -8 11, -15 18, -22 22" stroke-width="1" fill="none"/>
</g>
<g transform="translate(598 310) rotate(-30)" stroke="#D8B06A" opacity="0.92">
<path d="M0 0 C 4.5 -12.2, 11.9 -13.7, 14.4 0 C 11.9 13.7, 4.5 12.2, 0 0 Z" fill="url(#petal)" stroke-width="1.2"/>
<path d="M0 0 C -8 11, -15 18, -22 22" stroke-width="1" fill="none"/>
</g>
<g transform="translate(522 284) rotate(-20)" stroke="#D8B06A" opacity="0.92">
<path d="M0 0 C 3.8 -10.2, 9.9 -11.4, 12.0 0 C 9.9 11.4, 3.8 10.2, 0 0 Z" fill="url(#petal)" stroke-width="1.2"/>
<path d="M0 0 C -8 11, -15 18, -22 22" stroke-width="1" fill="none"/>
</g>
<g transform="translate(1198 168) rotate(20)" stroke="#D8B06A" opacity="0.92">
<path d="M0 0 C 4.5 -12.2, 11.9 -13.7, 14.4 0 C 11.9 13.7, 4.5 12.2, 0 0 Z" fill="url(#petal)" stroke-width="1.2"/>
<path d="M0 0 C -8 11, -15 18, -22 22" stroke-width="1" fill="none"/>
</g>
<g transform="translate(1226 222) rotate(15)" stroke="#D8B06A" opacity="0.92">
<path d="M0 0 C 3.8 -10.2, 9.9 -11.4, 12.0 0 C 9.9 11.4, 3.8 10.2, 0 0 Z" fill="url(#petal)" stroke-width="1.2"/>
<path d="M0 0 C -8 11, -15 18, -22 22" stroke-width="1" fill="none"/>
</g>
<g transform="translate(1170 742) rotate(-15)" stroke="#D8B06A" opacity="0.92">
<path d="M0 0 C 4.5 -12.2, 11.9 -13.7, 14.4 0 C 11.9 13.7, 4.5 12.2, 0 0 Z" fill="url(#petal)" stroke-width="1.2"/>
<path d="M0 0 C -8 11, -15 18, -22 22" stroke-width="1" fill="none"/>
</g>
<g transform="translate(1122 856) rotate(-10)" stroke="#D8B06A" opacity="0.92">
<path d="M0 0 C 4.0 -10.9, 10.6 -12.2, 12.8 0 C 10.6 12.2, 4.0 10.9, 0 0 Z" fill="url(#petal)" stroke-width="1.2"/>
<path d="M0 0 C -8 11, -15 18, -22 22" stroke-width="1" fill="none"/>
</g>
<g transform="translate(1070 972) rotate(-12)" stroke="#D8B06A" opacity="0.92">
<path d="M0 0 C 3.8 -10.2, 9.9 -11.4, 12.0 0 C 9.9 11.4, 3.8 10.2, 0 0 Z" fill="url(#petal)" stroke-width="1.2"/>
<path d="M0 0 C -8 11, -15 18, -22 22" stroke-width="1" fill="none"/>
</g>
<path d="M 884 364 C 906 338, 930 334, 946 352 C 956 334, 982 336, 996 356 C 1015 347, 1040 351, 1048 372 C 1029 384, 1002 385, 979 377 C 965 392, 932 392, 910 379" stroke="#D8B06A" stroke-width="2" opacity="0.74"/>
<circle cx="1015" cy="322" r="3" fill="#D8B06A" opacity="0.65"/>
<circle cx="1060" cy="736" r="3" fill="#D8B06A" opacity="0.65"/>
<circle cx="1176" cy="136" r="3" fill="#D8B06A" opacity="0.65"/>
<circle cx="974" cy="388" r="2.4" fill="#D8B06A" opacity="0.65"/>
<circle cx="964" cy="948" r="2.4" fill="#D8B06A" opacity="0.65"/>
</g></svg>